<?xml version="1.0" encoding="UTF-8" standalone="no"?><svg xmlns="http://www.w3.org/2000/svg" xmlns:xlink="http://www.w3.org/1999/xlink" fill="#027456" height="28" preserveAspectRatio="xMidYMid meet" version="1" viewBox="12.0 2.0 8.0 28.0" width="8" zoomAndPan="magnify"><g id="change1_1"><path d="M16,2c2.209,0,4,1.791,4,4c0,2.209-1.791,4-4,4s-4-1.791-4-4C12,3.791,13.791,2,16,2z"/></g><g id="change1_2"><path d="M20,16c0,2.209-1.791,4-4,4s-4-1.791-4-4c0-2.209,1.791-4,4-4S20,13.791,20,16z"/></g><g id="change1_3"><path d="M20,26c0,2.209-1.791,4-4,4s-4-1.791-4-4c0-2.209,1.791-4,4-4S20,23.791,20,26z"/></g></svg>