<?xml version="1.0" encoding="UTF-8" standalone="no"?><svg xmlns="http://www.w3.org/2000/svg" xmlns:xlink="http://www.w3.org/1999/xlink" fill="#027456" height="48" preserveAspectRatio="xMidYMid meet" version="1" viewBox="4.0 8.0 56.0 48.0" width="56" zoomAndPan="magnify"><g id="change1_1"><path d="M 19.949219 39.585938 L 15.707031 43.828125 C 15.511719 44.023438 15.257812 44.121094 15 44.121094 C 14.742188 44.121094 14.488281 44.023438 14.292969 43.828125 C 13.902344 43.4375 13.902344 42.804688 14.292969 42.414062 L 18.535156 38.171875 C 18.925781 37.78125 19.558594 37.78125 19.949219 38.171875 C 20.339844 38.5625 20.339844 39.195312 19.949219 39.585938 Z M 9.707031 43.828125 C 9.511719 44.023438 9.257812 44.121094 9 44.121094 C 8.742188 44.121094 8.488281 44.023438 8.292969 43.828125 C 7.902344 43.4375 7.902344 42.804688 8.292969 42.414062 L 12.535156 38.171875 C 12.925781 37.78125 13.558594 37.78125 13.949219 38.171875 C 14.339844 38.5625 14.339844 39.195312 13.949219 39.585938 Z M 24 29 C 24 28.449219 23.550781 28 23 28 L 5 28 C 4.449219 28 4 28.449219 4 29 L 4 52 L 24 52 L 24 29" fill="inherit"/><path d="M 24 55 L 24 54 L 4 54 L 4 55 C 4 55.550781 4.449219 56 5 56 L 23 56 C 23.550781 56 24 55.550781 24 55" fill="inherit"/><path d="M 30 46 L 30 52 L 34 52 L 34 46 L 30 46" fill="inherit"/><path d="M 26 55 C 26 55.351562 25.925781 55.6875 25.816406 56 L 41.828125 56 C 41.414062 54.835938 40.304688 54 39 54 L 26 54 L 26 55" fill="inherit"/><path d="M 32.019531 42 C 31.46875 42 31.015625 41.550781 31.015625 41 C 31.015625 40.449219 31.457031 40 32.011719 40 L 32.019531 40 C 32.574219 40 33.019531 40.449219 33.019531 41 C 33.019531 41.550781 32.574219 42 32.019531 42 Z M 48 38 L 26 38 L 26 44 L 48 44 L 48 38" fill="inherit"/><path d="M 41.707031 17.707031 L 31.808594 27.605469 C 31.613281 27.800781 31.355469 27.898438 31.101562 27.898438 C 30.84375 27.898438 30.589844 27.800781 30.394531 27.605469 C 30.003906 27.214844 30.003906 26.582031 30.394531 26.191406 L 40.292969 16.292969 C 40.683594 15.902344 41.316406 15.902344 41.707031 16.292969 C 42.097656 16.683594 42.097656 17.316406 41.707031 17.707031 Z M 34 12 L 30 12 C 29.449219 12 29 11.550781 29 11 C 29 10.449219 29.449219 10 30 10 L 34 10 C 34.550781 10 35 10.449219 35 11 C 35 11.550781 34.550781 12 34 12 Z M 48 35 C 48 33.34375 49.34375 32 51 32 L 56 32 L 56 11 C 56 9.34375 54.65625 8 53 8 L 11 8 C 9.34375 8 8 9.34375 8 11 L 8 26 L 23 26 C 23.441406 26 23.859375 26.101562 24.238281 26.277344 C 24.261719 26.25 24.269531 26.21875 24.292969 26.191406 L 34.191406 16.292969 C 34.582031 15.902344 35.214844 15.902344 35.605469 16.292969 C 35.996094 16.683594 35.996094 17.316406 35.605469 17.707031 L 25.707031 27.605469 C 25.691406 27.621094 25.671875 27.625 25.65625 27.640625 C 25.867188 28.046875 26 28.507812 26 29 L 26 36 L 48 36 L 48 35" fill="inherit"/><path d="M 50 55 C 50 55.550781 50.449219 56 51 56 L 59 56 C 59.550781 56 60 55.550781 60 55 L 60 54 L 50 54 L 50 55" fill="inherit"/><path d="M 57.121094 42.292969 L 54.292969 45.121094 C 54.097656 45.316406 53.84375 45.414062 53.585938 45.414062 C 53.332031 45.414062 53.074219 45.316406 52.878906 45.121094 C 52.488281 44.730469 52.488281 44.097656 52.878906 43.707031 L 55.707031 40.878906 C 56.097656 40.488281 56.730469 40.488281 57.121094 40.878906 C 57.511719 41.269531 57.511719 41.902344 57.121094 42.292969 Z M 59 34 L 51 34 C 50.449219 34 50 34.449219 50 35 L 50 52 L 60 52 L 60 35 C 60 34.449219 59.550781 34 59 34" fill="inherit"/></g></svg>