<svg fill="#FFFFFF" xmlns="http://www.w3.org/2000/svg"  viewBox="0 0 64 64" width="50px" height="50px"><path d="M 32 4 C 18.054 4 15 12.662 15 16 L 15 22 L 11 22 C 8.79 22 7 23.79 7 26 L 7 48 L 57 48 L 57 26 C 57 23.79 55.21 22 53 22 L 49 22 L 49 16 C 49 12.662 45.946 4 32 4 z M 32 8 C 42.611 8 45 13.925 45 16 L 45 22 L 19 22 L 19 16 C 19 13.925 21.389 8 32 8 z M 20 33 C 21.66 33 23 34.34 23 36 C 23 37.66 21.66 39 20 39 C 18.34 39 17 37.66 17 36 C 17 34.34 18.34 33 20 33 z M 32 33 C 33.66 33 35 34.34 35 36 C 35 37.66 33.66 39 32 39 C 30.34 39 29 37.66 29 36 C 29 34.34 30.34 33 32 33 z M 44 33 C 45.66 33 47 34.34 47 36 C 47 37.66 45.66 39 44 39 C 42.34 39 41 37.66 41 36 C 41 34.34 42.34 33 44 33 z M 6 50 L 6 52 C 6 54.209 7.791 56 10 56 L 54 56 C 56.209 56 58 54.209 58 52 L 58 51 L 6 50 z"/></svg>