<?xml version="1.0" encoding="UTF-8" standalone="no"?><svg xmlns="http://www.w3.org/2000/svg" xmlns:xlink="http://www.w3.org/1999/xlink" fill="#ffffff" height="26" preserveAspectRatio="xMidYMid meet" version="1" viewBox="4.0 4.0 24.0 26.0" width="24" zoomAndPan="magnify"><g id="change1_1"><path d="M21.362,4H7C4.799,4,4,5.794,4,7v20c0,2.201,1.794,3,3,3h18c2.201,0,3-1.794,3-3V9.532L21.362,4z M10,6h5v4h3V6h2v5 c0,0.805-0.55,0.988-1,1h-8c-0.805,0-0.988-0.55-1-1V6z M22,28H10v-8h12V28z M26,26.988C25.988,27.45,25.806,28,25,28h-1V18H8v10 H7.012C6.55,27.988,6,27.806,6,27V7.012C6.012,6.55,6.195,6,7,6h1v5c0,1.206,0.799,3,3,3h8c1.206,0,3-0.799,3-3V7.135l4,3.333 V26.988z M20,24h-8v-2h8V24z" fill="inherit"/></g></svg>